<svg height="512pt" viewBox="0 0 512 512" width="512pt"
    xmlns="http://www.w3.org/2000/svg"
    xmlns:xlink="http://www.w3.org/1999/xlink">
    <linearGradient id="a" gradientTransform="matrix(1 0 0 -1 0 -15158)" gradientUnits="userSpaceOnUse" x1="0" x2="512" y1="-15414" y2="-15414">
        <stop offset="0" stop-color="#00f38d"/>
        <stop offset="1" stop-color="#009eff"/>
    </linearGradient>
    <path d="m512 256c0 141.386719-114.613281 256-256 256s-256-114.613281-256-256 114.613281-256 256-256 256 114.613281 256 256zm0 0" fill="url(#a)"/>
    <g fill="#fff">
        <path d="m344.347656 130.261719v47.882812h30v-47.882812c0-22.851563-18.601562-41.441407-41.464844-41.441407h-47.855468v30h47.855468c6.320313 0 11.464844 5.132813 11.464844 11.441407zm0 0"/>
        <path d="m344.378906 199.730469h30v63.53125h-30zm0 0"/>
        <path d="m119 130.316406c0-6.324218 5.132812-11.464844 11.4375-11.464844h47.886719v-30h-47.886719c-22.847656 0-41.4375 18.601563-41.4375 41.464844v47.859375h30zm0 0"/>
        <path d="m199.910156 88.820312h63.53125v30h-63.53125zm0 0"/>
        <path d="m199.910156 344.171875h63.53125v30h-63.53125zm0 0"/>
        <path d="m119.027344 332.734375v-47.886719h-30v47.886719c0 22.847656 18.601562 41.4375 41.464844 41.4375h47.859374v-30h-47.859374c-6.320313 0-11.464844-5.132813-11.464844-11.4375zm0 0"/>
        <path d="m89 199.730469h30v63.53125h-30zm0 0"/>
        <path d="m424 344.171875h-49.652344v-59.324219h-30v59.324219h-59.324218v30h59.324218v49.007813h30v-49.007813h49.652344zm0 0"/>
    </g>
</svg>